<svg version="1.2" xmlns="http://www.w3.org/2000/svg" viewBox="0 0 466 90" width="725" height="140">
	<title>default-monochrome-black-svg</title>
	<style>
		.s0 { fill: #000000 } 
	</style>
	<g id="b723de12-acb0-425e-85a3-bae5be118ba8">
	</g>
	<g id="a50a4cc5-5e1c-4725-ac5d-e576af300f48">
		<path id="Layer" class="s0" d="m193.8 4.9c0 0-3.6-5.7-6.5-4.8-3.2 1-1.6 7.2-1.6 7.2-5.8 1.1-8.4 9.9-19 10.6-3.8 0.2-0.3 10 10.3 12.1 14.6 3 25.2 10.3 26.7 14.9 0.8 2.8 8.8 30.4 5.4 35.4 0 0-6.3 1.5-3.3 7.4 0.8 1.5 13.9 1 14.7-1.9 0.3-1.2 3.5-11.2 3.5-11.2 2.8 3.3 2.7 7 0.4 9.8-1.9 2.2 2.3 6.6 8.3 4.7 7.2-2.3 7.5-21.9 7.5-29.6 0 0 13.6 5 27.6 2.6 0 0 1.8 16.9 1 18-0.8 1.2-5.8 3.7-2.5 7.7 2.2 2.8 8.4 2.2 10.4 0.4 4.2-3.7 8.7-20.5 8.7-20.5 0 0 4.1 13 3.4 13.6-4.3 4.4-1.5 8.6 2.9 8.6 0 0 7.4 1.3 9.1-5.4 0 0-1.9-34.9-0.6-42 3-16.9-31.3-24.7-36.1-25.1-8.2-0.8-27.6-0.9-29.9-1.7-2.2-0.7-7.5-3.7-11.1-4.4-3-0.6-7.3 0.7-9.6 0.3-2.7-0.5-10.3-4-10.3-4 0 0 0.4-5.2-3.1-6.1-2.3-0.7-6.3 3.4-6.3 3.4z"/>
	</g>
</svg>