<svg xmlns="http://www.w3.org/2000/svg" class="iconLeft" viewBox="0 0 466 90"><g id="b723de12-acb0-425e-85a3-bae5be118ba8" fill="#000"><path d="M0.67 5.84C0.67 7.64 1.39 9.09 2.41 9.81C3.47 10.56 4.70 10.71 5.94 10.71C6.92 10.71 8.27 10.40 9.16 10.12L9.16 7.36C9.16 6.66 9.23 6.59 10.15 6.50L10.15 6.09L6.29 6.09L6.29 6.50C7.70 6.59 7.77 6.68 7.77 7.36L7.77 9.25C7.77 9.74 7.59 9.90 7.29 10.01C6.93 10.15 6.54 10.22 6.06 10.22C2.84 10.22 2.24 7.36 2.24 5.61C2.24 3.40 3.12 1.09 5.88 1.09C7.42 1.09 8.32 1.79 8.61 3.37L9.03 3.37L9.03 1.18C8.34 0.84 7.14 0.60 6.02 0.60C3.92 0.60 2.52 1.29 1.72 2.32C1.01 3.26 0.67 4.38 0.67 5.84ZM10.72 10.50L14.42 10.50L14.42 10.09C13.17 10.02 13.09 10.00 13.09 9.28L13.09 6.01C13.09 4.93 13.57 4.56 13.89 4.56C14.11 4.56 14.35 4.65 14.76 4.87C14.85 4.93 14.97 4.94 15.04 4.94C15.37 4.94 15.68 4.59 15.68 4.16C15.68 3.85 15.48 3.47 14.94 3.47C14.43 3.47 14.01 3.78 13.09 4.59L12.92 3.47L10.79 3.82L10.79 4.17L11.33 4.24C11.69 4.30 11.77 4.37 11.77 4.87L11.77 9.28C11.77 10.00 11.70 10.02 10.72 10.09ZM17.01 1.34C17.01 1.85 17.36 2.20 17.86 2.20C18.37 2.20 18.72 1.85 18.72 1.34C18.72 0.84 18.37 0.49 17.86 0.49C17.36 0.49 17.01 0.84 17.01 1.34ZM16.17 10.50L19.59 10.50L19.59 10.09C18.59 10.02 18.54 10.00 18.54 9.28L18.54 3.56L18.44 3.47L16.24 3.82L16.24 4.17L16.77 4.24C17.14 4.30 17.22 4.37 17.22 4.87L17.22 9.28C17.22 10.00 17.18 10.02 16.17 10.09ZM20.06 10.29L20.17 10.50L26.12 10.50L26.26 8.36L25.83 8.36C25.61 9.67 25.13 10.01 23.58 10.01L21.77 10.01C23.18 7.95 24.65 5.89 26.14 3.84L26.03 3.64L20.65 3.64L20.65 5.71L21.08 5.71C21.27 4.42 21.56 4.13 23.07 4.13L24.47 4.13C23.03 6.19 21.56 8.23 20.06 10.29ZM26.78 10.29L26.89 10.50L32.84 10.50L32.98 8.36L32.55 8.36C32.33 9.67 31.85 10.01 30.30 10.01L28.49 10.01C29.90 7.95 31.37 5.89 32.86 3.84L32.75 3.64L27.37 3.64L27.37 5.71L27.80 5.71C27.99 4.42 28.28 4.13 29.79 4.13L31.19 4.13C29.75 6.19 28.28 8.23 26.78 10.29ZM33.52 10.50L36.93 10.50L36.93 10.09C35.94 10.02 35.88 10.00 35.88 9.28L35.88 0.20L35.78 0.11L33.59 0.46L33.59 0.81L34.12 0.87C34.48 0.91 34.57 0.98 34.57 1.51L34.57 9.28C34.57 10.00 34.52 10.02 33.52 10.09ZM37.07 4.05C37.74 4.07 37.88 4.16 38.14 4.77C38.84 6.45 40.00 9.44 40.33 10.40C40.42 10.64 40.45 10.85 40.45 11.09C40.45 11.41 40.32 11.83 40.11 12.28C39.90 12.74 39.65 12.87 39.49 12.87C39.35 12.87 39.23 12.82 38.98 12.57C38.84 12.45 38.72 12.38 38.56 12.38C38.29 12.38 37.94 12.75 37.94 13.16C37.94 13.50 38.33 13.89 38.92 13.89C39.48 13.89 40.19 13.72 40.91 11.65C41.78 9.16 43.06 5.74 43.50 4.76C43.75 4.20 43.83 4.09 44.53 4.05L44.53 3.64L41.85 3.64L41.85 4.05L42.57 4.12C42.81 4.14 42.84 4.31 42.77 4.59C42.56 5.43 41.83 7.55 41.22 9.23L41.19 9.23C40.54 7.53 39.98 6.01 39.47 4.54C39.38 4.28 39.35 4.13 39.68 4.10L40.28 4.05L40.28 3.64L37.07 3.64ZM44.72 10.50L49.06 10.50C51.18 10.50 52.56 9.73 52.56 7.78C52.56 6.13 51.38 5.40 50.02 5.22L50.02 5.19C51.34 4.93 52.11 4.12 52.11 3.04C52.11 2.27 51.80 1.69 51.24 1.32C50.69 0.95 49.88 0.81 48.76 0.81L44.72 0.81L44.72 1.22C45.95 1.30 45.98 1.33 45.98 2.11L45.98 9.20C45.98 9.98 45.95 10.01 44.72 10.09ZM47.36 8.93L47.36 5.53L48.37 5.53C50.11 5.53 51.06 6.40 51.06 7.88C51.06 9.56 49.91 10.01 48.71 10.01C47.59 10.01 47.36 9.80 47.36 8.93ZM47.36 5.04L47.36 2.00C47.36 1.40 47.40 1.30 48.50 1.30C49.52 1.30 50.64 1.68 50.64 3.12C50.64 4.49 49.76 5.04 48.30 5.04ZM53.20 4.05C53.87 4.07 54.01 4.16 54.26 4.77C54.96 6.45 56.13 9.44 56.46 10.40C56.55 10.64 56.57 10.85 56.57 11.09C56.57 11.41 56.45 11.83 56.24 12.28C56.03 12.74 55.78 12.87 55.62 12.87C55.48 12.87 55.36 12.82 55.10 12.57C54.96 12.45 54.85 12.38 54.68 12.38C54.42 12.38 54.07 12.75 54.07 13.16C54.07 13.50 54.46 13.89 55.05 13.89C55.61 13.89 56.32 13.72 57.04 11.65C57.90 9.16 59.19 5.74 59.63 4.76C59.88 4.20 59.96 4.09 60.66 4.05L60.66 3.64L57.97 3.64L57.97 4.05L58.70 4.12C58.94 4.14 58.97 4.31 58.90 4.59C58.69 5.43 57.96 7.55 57.34 9.23L57.32 9.23C56.67 7.53 56.11 6.01 55.59 4.54C55.51 4.28 55.48 4.13 55.80 4.10L56.41 4.05L56.41 3.64L53.20 3.64ZM60.79 4.20L61.80 4.20L61.80 9.07C61.80 10.50 62.86 10.67 63.35 10.67C64.06 10.67 64.74 10.30 65.14 10.05L65.03 9.76C64.69 9.90 64.39 9.94 64.04 9.94C63.56 9.94 63.11 9.60 63.11 8.54L63.11 4.20L64.92 4.20L64.92 3.64L63.11 3.64L63.11 1.88L62.71 1.88L61.85 3.64L60.79 3.64ZM65.86 7.13C65.86 9.34 66.81 10.67 69.09 10.67C70.64 10.67 71.44 9.80 71.82 8.69L71.40 8.47C71.01 9.28 70.48 9.95 69.37 9.95C67.63 9.95 67.28 8.27 67.31 6.82L71.34 6.82C71.64 6.82 71.90 6.75 71.90 6.29C71.90 5.46 71.64 3.47 69.08 3.47C66.89 3.47 65.86 5.03 65.86 7.13ZM67.33 6.29C67.33 5.71 67.54 3.96 68.99 3.96C70.29 3.96 70.45 5.29 70.45 5.84C70.45 6.10 70.36 6.29 69.97 6.29Z" transform="matrix(4.354136212645278,0,0,4.354136212645278,152.65529977783476,14.521045361930994)"/></g><g id="a50a4cc5-5e1c-4725-ac5d-e576af300f48" fill="#000" stroke="none"><path d="M21.117 3.593S18.404-.578 16.284.068c-2.333.71-1.137 5.351-1.137 5.351-4.348.754-6.248 7.257-14.025 7.775-2.854.19-.239 7.377 7.543 8.941 10.818 2.175 18.603 7.619 19.69 11.021.651 2.038 6.502 22.364 4.017 26.057 0 0-4.677 1.088-2.448 5.443.586 1.146 10.262.785 10.852-1.378.233-.857 2.553-8.252 2.553-8.252 2.104 2.418 2.031 5.195.319 7.213-1.397 1.646 1.72 4.905 6.135 3.477 5.298-1.714 5.565-16.115 5.565-21.814 0 0 9.972 3.696 20.335 1.877 0 0 1.292 12.526.705 13.335-.607.837-4.277 2.695-1.861 5.675 1.661 2.049 6.268 1.562 7.709.28 3.077-2.736 6.441-15.158 6.441-15.158s3.025 9.582 2.511 10.094c-3.21 3.188-1.162 6.312 2.101 6.312 0 0 5.479.927 6.712-4.01 0 0-1.389-25.691-.437-30.987 2.23-12.41-23.119-18.168-26.654-18.509-6.048-.584-20.316-.616-22.051-1.197-1.59-.533-5.487-2.761-8.175-3.272-2.176-.414-5.349.502-7.098.202-1.994-.342-7.55-2.912-7.55-2.912s.271-3.868-2.288-4.555c-1.715-.462-4.631 2.516-4.631 2.516z" transform="matrix(1.3557062498549077,0,0,1.3557062498549077,0.21386794135871412,-0.00000831108390997315)"/></g></svg>